<?xml version="1.0" encoding="UTF-8" standalone="no"?>
<!-- Created with Inkscape (http://www.inkscape.org/) -->

<svg
   xmlns:dc="http://purl.org/dc/elements/1.1/"
   xmlns:cc="http://creativecommons.org/ns#"
   xmlns:rdf="http://www.w3.org/1999/02/22-rdf-syntax-ns#"
   xmlns:svg="http://www.w3.org/2000/svg"
   xmlns="http://www.w3.org/2000/svg"
   xmlns:sodipodi="http://sodipodi.sourceforge.net/DTD/sodipodi-0.dtd"
   xmlns:inkscape="http://www.inkscape.org/namespaces/inkscape"
   width="744.09448819"
   height="1052.3622047"
   id="svg2"
   version="1.1"
   inkscape:version="0.48.4 r9939"
   sodipodi:docname="approximation.svg"
   inkscape:export-filename="/home/black/write/class/grad/REU/2013/DeerActuary_REU2013/Paper/Final Presentation/approximation.png"
   inkscape:export-xdpi="600"
   inkscape:export-ydpi="600">
  <defs
     id="defs4" />
  <sodipodi:namedview
     id="base"
     pagecolor="#ffffff"
     bordercolor="#666666"
     borderopacity="1.0"
     inkscape:pageopacity="0.0"
     inkscape:pageshadow="2"
     inkscape:zoom="1.88"
     inkscape:cx="255.85163"
     inkscape:cy="853.36148"
     inkscape:document-units="px"
     inkscape:current-layer="layer1"
     showgrid="true"
     inkscape:snap-global="true"
     inkscape:window-width="902"
     inkscape:window-height="974"
     inkscape:window-x="629"
     inkscape:window-y="63"
     inkscape:window-maximized="0">
    <inkscape:grid
       type="xygrid"
       id="grid2985"
       empspacing="5"
       visible="true"
       enabled="true"
       snapvisiblegridlinesonly="true"
       spacingx="2px"
       spacingy="2px" />
  </sodipodi:namedview>
  <metadata
     id="metadata7">
    <rdf:RDF>
      <cc:Work
         rdf:about="">
        <dc:format>image/svg+xml</dc:format>
        <dc:type
           rdf:resource="http://purl.org/dc/dcmitype/StillImage" />
        <dc:title></dc:title>
      </cc:Work>
    </rdf:RDF>
  </metadata>
  <g
     inkscape:label="Layer 1"
     inkscape:groupmode="layer"
     id="layer1">
    <path
       style="fill:none;stroke:#00ff00;stroke-width:1.70000005;stroke-linecap:butt;stroke-linejoin:miter;stroke-miterlimit:4;stroke-opacity:1;stroke-dasharray:3.4, 1.7;stroke-dashoffset:0"
       d="m 320,392.36218 0,-160"
       id="path4287-5"
       inkscape:connector-curvature="0"
       sodipodi:nodetypes="cc" />
    <path
       style="fill:none;stroke:#000000;stroke-width:1px;stroke-linecap:butt;stroke-linejoin:miter;stroke-opacity:1"
       d="m 80,122.36218 0,270 360,0"
       id="path2987"
       inkscape:connector-curvature="0"
       sodipodi:nodetypes="ccc" />
    <path
       style="fill:none;stroke:#000000;stroke-width:1px;stroke-linecap:butt;stroke-linejoin:miter;stroke-opacity:1"
       d="m 100,382.36218 0,20"
       id="path2989"
       inkscape:connector-curvature="0" />
    <path
       style="fill:none;stroke:#000000;stroke-width:1px;stroke-linecap:butt;stroke-linejoin:miter;stroke-opacity:1"
       d="m 120,382.36218 0,20"
       id="path2991"
       inkscape:connector-curvature="0" />
    <path
       style="fill:none;stroke:#000000;stroke-width:1px;stroke-linecap:butt;stroke-linejoin:miter;stroke-opacity:1"
       d="m 140,382.36218 0,20"
       id="path2993"
       inkscape:connector-curvature="0" />
    <path
       style="fill:none;stroke:#000000;stroke-width:1px;stroke-linecap:butt;stroke-linejoin:miter;stroke-opacity:1"
       d="m 160,382.36218 0,20"
       id="path2995"
       inkscape:connector-curvature="0" />
    <path
       style="fill:none;stroke:#000000;stroke-width:1px;stroke-linecap:butt;stroke-linejoin:miter;stroke-opacity:1"
       d="m 180,382.36218 0,20"
       id="path2997"
       inkscape:connector-curvature="0" />
    <path
       style="fill:none;stroke:#000000;stroke-width:1px;stroke-linecap:butt;stroke-linejoin:miter;stroke-opacity:1"
       d="m 200,382.36218 0,20"
       id="path2999"
       inkscape:connector-curvature="0" />
    <path
       style="fill:none;stroke:#000000;stroke-width:1px;stroke-linecap:butt;stroke-linejoin:miter;stroke-opacity:1"
       d="m 220,382.36218 0,20"
       id="path3001"
       inkscape:connector-curvature="0" />
    <path
       style="fill:none;stroke:#000000;stroke-width:1px;stroke-linecap:butt;stroke-linejoin:miter;stroke-opacity:1"
       d="m 240,382.36218 0,20"
       id="path3003"
       inkscape:connector-curvature="0" />
    <path
       style="fill:none;stroke:#000000;stroke-width:1px;stroke-linecap:butt;stroke-linejoin:miter;stroke-opacity:1"
       d="m 260,382.36218 0,20"
       id="path3005"
       inkscape:connector-curvature="0" />
    <path
       style="fill:none;stroke:#000000;stroke-width:1px;stroke-linecap:butt;stroke-linejoin:miter;stroke-opacity:1"
       d="m 280,382.36218 0,20"
       id="path3007"
       inkscape:connector-curvature="0" />
    <path
       style="fill:none;stroke:#000000;stroke-width:1px;stroke-linecap:butt;stroke-linejoin:miter;stroke-opacity:1"
       d="m 300,382.36218 0,20"
       id="path3009"
       inkscape:connector-curvature="0" />
    <path
       style="fill:none;stroke:#000000;stroke-width:1px;stroke-linecap:butt;stroke-linejoin:miter;stroke-opacity:1"
       d="m 320,382.36218 0,20"
       id="path3011"
       inkscape:connector-curvature="0" />
    <path
       style="fill:none;stroke:#000000;stroke-width:1px;stroke-linecap:butt;stroke-linejoin:miter;stroke-opacity:1"
       d="m 340,382.36218 0,20"
       id="path3013"
       inkscape:connector-curvature="0" />
    <path
       style="fill:none;stroke:#000000;stroke-width:1px;stroke-linecap:butt;stroke-linejoin:miter;stroke-opacity:1"
       d="m 360,382.36218 0,20"
       id="path3015"
       inkscape:connector-curvature="0" />
    <path
       style="fill:none;stroke:#000000;stroke-width:1px;stroke-linecap:butt;stroke-linejoin:miter;stroke-opacity:1"
       d="m 380,382.36218 0,20"
       id="path3017"
       inkscape:connector-curvature="0" />
    <path
       style="fill:none;stroke:#000000;stroke-width:1px;stroke-linecap:butt;stroke-linejoin:miter;stroke-opacity:1"
       d="m 400,382.36218 0,20"
       id="path3019"
       inkscape:connector-curvature="0" />
    <path
       style="fill:none;stroke:#000000;stroke-width:1px;stroke-linecap:butt;stroke-linejoin:miter;stroke-opacity:1"
       d="m 420,382.36218 0,20"
       id="path3021"
       inkscape:connector-curvature="0" />
    <text
       xml:space="preserve"
       style="font-size:12px;font-style:normal;font-variant:normal;font-weight:normal;font-stretch:normal;text-align:start;line-height:125%;letter-spacing:0px;word-spacing:0px;writing-mode:lr-tb;text-anchor:start;fill:#000000;fill-opacity:1;stroke:none;font-family:Arial;-inkscape-font-specification:Arial"
       x="70"
       y="412.36218"
       id="text3023"
       sodipodi:linespacing="125%"><tspan
         sodipodi:role="line"
         id="tspan3025"
         x="70"
         y="412.36218">t<tspan
   style="font-size:65%;baseline-shift:sub"
   id="tspan3050">0</tspan></tspan></text>
    <text
       xml:space="preserve"
       style="font-size:12px;font-style:normal;font-variant:normal;font-weight:normal;font-stretch:normal;text-align:start;line-height:125%;letter-spacing:0px;word-spacing:0px;writing-mode:lr-tb;text-anchor:start;fill:#000000;fill-opacity:1;stroke:none;font-family:Arial;-inkscape-font-specification:Arial"
       x="100"
       y="412.36218"
       id="text3023-8"
       sodipodi:linespacing="125%"><tspan
         sodipodi:role="line"
         id="tspan3025-1"
         x="100"
         y="412.36218">t<tspan
   style="letter-spacing:0px;font-size:65%;baseline-shift:sub"
   id="tspan3048">1</tspan></tspan></text>
    <text
       xml:space="preserve"
       style="font-size:12px;font-style:normal;font-variant:normal;font-weight:normal;font-stretch:normal;text-align:start;line-height:125%;letter-spacing:0px;word-spacing:0px;writing-mode:lr-tb;text-anchor:start;fill:#000000;fill-opacity:1;stroke:none;font-family:Arial;-inkscape-font-specification:Arial"
       x="118"
       y="412.36218"
       id="text3023-8-6"
       sodipodi:linespacing="125%"><tspan
         sodipodi:role="line"
         id="tspan3025-1-4"
         x="118"
         y="412.36218">t<tspan
   style="font-size:65%;baseline-shift:sub"
   id="tspan3241">2</tspan></tspan></text>
    <text
       xml:space="preserve"
       style="font-size:12px;font-style:normal;font-variant:normal;font-weight:normal;font-stretch:normal;text-align:start;line-height:125%;letter-spacing:0px;word-spacing:0px;writing-mode:lr-tb;text-anchor:start;fill:#000000;fill-opacity:1;stroke:none;font-family:Arial;-inkscape-font-specification:Arial"
       x="136"
       y="412.36218"
       id="text3023-8-2"
       sodipodi:linespacing="125%"><tspan
         sodipodi:role="line"
         id="tspan3025-1-7"
         x="136"
         y="412.36218">t<tspan
   style="font-size:65%;baseline-shift:sub"
   id="tspan3243">2</tspan></tspan></text>
    <text
       xml:space="preserve"
       style="font-size:12px;font-style:normal;font-variant:normal;font-weight:normal;font-stretch:normal;text-align:start;line-height:125%;letter-spacing:0px;word-spacing:0px;writing-mode:lr-tb;text-anchor:start;fill:#000000;fill-opacity:1;stroke:none;font-family:Arial;-inkscape-font-specification:Arial"
       x="156"
       y="412.36218"
       id="text3023-8-28"
       sodipodi:linespacing="125%"><tspan
         sodipodi:role="line"
         id="tspan3025-1-3"
         x="156"
         y="412.36218">t<tspan
   style="font-size:65%;baseline-shift:sub"
   id="tspan3245">3</tspan></tspan></text>
    <text
       xml:space="preserve"
       style="font-size:12px;font-style:normal;font-variant:normal;font-weight:normal;font-stretch:normal;text-align:start;line-height:125%;letter-spacing:0px;word-spacing:0px;writing-mode:lr-tb;text-anchor:start;fill:#000000;fill-opacity:1;stroke:none;font-family:Arial;-inkscape-font-specification:Arial"
       x="178"
       y="412.36218"
       id="text3023-8-0"
       sodipodi:linespacing="125%"><tspan
         sodipodi:role="line"
         id="tspan3025-1-1"
         x="178"
         y="412.36218">t<tspan
   style="font-size:65.00091553%;letter-spacing:0px;baseline-shift:sub"
   id="tspan3048-8">4</tspan></tspan></text>
    <text
       xml:space="preserve"
       style="font-size:12px;font-style:normal;font-variant:normal;font-weight:normal;font-stretch:normal;text-align:start;line-height:125%;letter-spacing:0px;word-spacing:0px;writing-mode:lr-tb;text-anchor:start;fill:#000000;fill-opacity:1;stroke:none;font-family:Arial;-inkscape-font-specification:Arial"
       x="198"
       y="412.36218"
       id="text3023-8-3"
       sodipodi:linespacing="125%"><tspan
         sodipodi:role="line"
         id="tspan3025-1-0"
         x="198"
         y="412.36218">t<tspan
   style="font-size:65.00091553%;letter-spacing:0px;baseline-shift:sub"
   id="tspan3048-2">5</tspan></tspan></text>
    <text
       xml:space="preserve"
       style="font-size:12px;font-style:normal;font-variant:normal;font-weight:normal;font-stretch:normal;text-align:start;line-height:125%;letter-spacing:0px;word-spacing:0px;writing-mode:lr-tb;text-anchor:start;fill:#000000;fill-opacity:1;stroke:none;font-family:Arial;-inkscape-font-specification:Arial"
       x="218"
       y="412.36218"
       id="text3023-8-08"
       sodipodi:linespacing="125%"><tspan
         sodipodi:role="line"
         id="tspan3025-1-06"
         x="218"
         y="412.36218">t<tspan
   style="font-size:65.00091553%;letter-spacing:0px;baseline-shift:sub"
   id="tspan3048-5">6</tspan></tspan></text>
    <text
       xml:space="preserve"
       style="font-size:12px;font-style:normal;font-variant:normal;font-weight:normal;font-stretch:normal;text-align:start;line-height:125%;letter-spacing:0px;word-spacing:0px;writing-mode:lr-tb;text-anchor:start;fill:#000000;fill-opacity:1;stroke:none;font-family:Arial;-inkscape-font-specification:Arial"
       x="238"
       y="412.36218"
       id="text3023-8-5"
       sodipodi:linespacing="125%"><tspan
         sodipodi:role="line"
         id="tspan3025-1-19"
         x="238"
         y="412.36218">t<tspan
   style="font-size:65.00091553%;letter-spacing:0px;baseline-shift:sub"
   id="tspan3048-9">7</tspan></tspan></text>
    <text
       xml:space="preserve"
       style="font-size:12px;font-style:normal;font-variant:normal;font-weight:normal;font-stretch:normal;text-align:start;line-height:125%;letter-spacing:0px;word-spacing:0px;writing-mode:lr-tb;text-anchor:start;fill:#000000;fill-opacity:1;stroke:none;font-family:Arial;-inkscape-font-specification:Arial"
       x="258"
       y="412.36218"
       id="text3023-8-04"
       sodipodi:linespacing="125%"><tspan
         sodipodi:role="line"
         id="tspan3025-1-45"
         x="258"
         y="412.36218">t<tspan
   style="font-size:65.00091553%;letter-spacing:0px;baseline-shift:sub"
   id="tspan3048-45">8</tspan></tspan></text>
    <text
       xml:space="preserve"
       style="font-size:12px;font-style:normal;font-variant:normal;font-weight:normal;font-stretch:normal;text-align:start;line-height:125%;letter-spacing:0px;word-spacing:0px;writing-mode:lr-tb;text-anchor:start;fill:#000000;fill-opacity:1;stroke:none;font-family:Arial;-inkscape-font-specification:Arial"
       x="398"
       y="412.36218"
       id="text3023-8-1"
       sodipodi:linespacing="125%"><tspan
         sodipodi:role="line"
         id="tspan3025-1-29"
         x="398"
         y="412.36218">t<tspan
   style="font-size:65%;baseline-shift:sub"
   id="tspan3271">N-1</tspan></tspan></text>
    <text
       xml:space="preserve"
       style="font-size:12px;font-style:normal;font-variant:normal;font-weight:normal;font-stretch:normal;text-align:start;line-height:125%;letter-spacing:0px;word-spacing:0px;writing-mode:lr-tb;text-anchor:start;fill:#000000;fill-opacity:1;stroke:none;font-family:Arial;-inkscape-font-specification:Arial"
       x="418"
       y="412.36218"
       id="text3023-8-8"
       sodipodi:linespacing="125%"><tspan
         sodipodi:role="line"
         id="tspan3025-1-451"
         x="418"
         y="412.36218">t<tspan
   style="font-size:65.00091553%;letter-spacing:0px;baseline-shift:sub"
   id="tspan3048-26">N</tspan></tspan></text>
    <text
       xml:space="preserve"
       style="font-size:12px;font-style:normal;font-variant:normal;font-weight:normal;font-stretch:normal;text-align:start;line-height:125%;letter-spacing:0px;word-spacing:0px;writing-mode:lr-tb;text-anchor:start;fill:#000000;fill-opacity:1;stroke:none;font-family:Arial;-inkscape-font-specification:Arial"
       x="318"
       y="412.36218"
       id="text3023-8-04-8"
       sodipodi:linespacing="125%"><tspan
         sodipodi:role="line"
         id="tspan3025-1-45-8"
         x="318"
         y="412.36218">t<tspan
   style="font-size:65.00091553%;letter-spacing:0px;baseline-shift:sub"
   id="tspan3048-45-8">j</tspan></tspan></text>
    <text
       xml:space="preserve"
       style="font-size:12px;font-style:normal;font-variant:normal;font-weight:normal;font-stretch:normal;text-align:start;line-height:125%;letter-spacing:0px;word-spacing:0px;writing-mode:lr-tb;text-anchor:start;fill:#000000;fill-opacity:1;stroke:none;font-family:Arial;-inkscape-font-specification:Arial"
       x="284"
       y="408.36218"
       id="text3023-8-04-4"
       sodipodi:linespacing="125%"><tspan
         sodipodi:role="line"
         id="tspan3025-1-45-7"
         x="284"
         y="408.36218">.....</tspan></text>
    <text
       xml:space="preserve"
       style="font-size:12px;font-style:normal;font-variant:normal;font-weight:normal;font-stretch:normal;text-align:start;line-height:125%;letter-spacing:0px;word-spacing:0px;writing-mode:lr-tb;text-anchor:start;fill:#000000;fill-opacity:1;stroke:none;font-family:Arial;-inkscape-font-specification:Arial"
       x="354"
       y="410.36218"
       id="text3023-8-04-4-1"
       sodipodi:linespacing="125%"><tspan
         sodipodi:role="line"
         id="tspan3025-1-45-7-8"
         x="354"
         y="410.36218">.....</tspan></text>
    <text
       xml:space="preserve"
       style="font-size:12px;font-style:normal;font-variant:normal;font-weight:normal;font-stretch:normal;text-align:start;line-height:125%;letter-spacing:0px;word-spacing:0px;writing-mode:lr-tb;text-anchor:start;fill:#000000;fill-opacity:1;stroke:none;font-family:Arial;-inkscape-font-specification:Arial"
       x="442"
       y="392.36218"
       id="text3023-8-8-2"
       sodipodi:linespacing="125%"><tspan
         sodipodi:role="line"
         id="tspan3025-1-451-3"
         x="442"
         y="392.36218">t<tspan
   style="font-size:65.00091553%;letter-spacing:0px;baseline-shift:sub"
   id="tspan3048-26-4" /></tspan></text>
    <text
       xml:space="preserve"
       style="font-size:12px;font-style:normal;font-variant:normal;font-weight:normal;font-stretch:normal;text-align:start;line-height:125%;letter-spacing:0px;word-spacing:0px;writing-mode:lr-tb;text-anchor:start;fill:#000000;fill-opacity:1;stroke:none;font-family:Arial;-inkscape-font-specification:Arial"
       x="58"
       y="138.36218"
       id="text3023-8-8-4"
       sodipodi:linespacing="125%"><tspan
         sodipodi:role="line"
         id="tspan3025-1-451-6"
         x="58"
         y="138.36218">x(t)</tspan></text>
    <path
       style="fill:none;stroke:#ff0000;stroke-width:1px;stroke-linecap:butt;stroke-linejoin:miter;stroke-opacity:1"
       d="m 80,392.36218 c 1.884473,-3.76894 1.057008,-1.78804 2.446809,-5.95744 0.354609,-1.06383 0.768776,-2.10963 1.063829,-3.19149 1.14471,-4.19727 -0.241282,-1.2585 1.595745,-5.85107 2.961838,-5.92367 -0.576943,1.53852 1.595745,-4.25532 0.278417,-0.74244 0.813082,-1.37541 1.063829,-2.12766 0.112138,-0.33641 -0.08601,-0.7198 0,-1.06383 0.09616,-0.38462 0.406542,-0.68771 0.531915,-1.06383 0.05607,-0.1682 -0.07929,-0.37332 0,-0.53191 0.112138,-0.22428 0.419778,-0.30764 0.531915,-0.53192 0.07929,-0.15858 -0.05607,-0.3637 0,-0.53191 0.125374,-0.37612 0.35461,-0.70922 0.531915,-1.06383 0.177305,-0.35461 0.454162,-0.67506 0.531915,-1.06383 0.104317,-0.52159 -0.08745,-1.07107 0,-1.59574 0.09218,-0.55306 0.35461,-1.06383 0.531915,-1.59575 0.35461,-1.06383 0.755764,-2.11326 1.06383,-3.19149 0.942476,-3.29866 0.121354,-0.95665 1.063829,-4.25532 0.154033,-0.53911 0.377883,-1.05663 0.531915,-1.59574 0.200834,-0.70292 0.331081,-1.42474 0.531915,-2.12766 0.308066,-1.07823 0.879477,-2.08537 1.06383,-3.19149 0.08745,-0.52468 -0.104317,-1.07416 0,-1.59575 0.07775,-0.38876 0.435758,-0.6792 0.531915,-1.06383 0.08601,-0.34402 -0.08601,-0.7198 0,-1.06383 0.09616,-0.38462 0.406541,-0.6877 0.531915,-1.06383 0.05607,-0.1682 -0.05607,-0.3637 0,-0.53191 0.125373,-0.37612 0.435758,-0.6792 0.531915,-1.06383 0.08601,-0.34402 -0.08601,-0.71981 0,-1.06383 0.09616,-0.38463 0.454161,-0.67506 0.531915,-1.06383 0.104317,-0.52159 -0.08745,-1.07107 0,-1.59574 0.09218,-0.55306 0.421955,-1.04595 0.531915,-1.59575 0.06954,-0.34772 -0.06954,-0.71611 0,-1.06383 0.219919,-1.0996 0.879476,-2.08537 1.063829,-3.19149 0.08745,-0.52468 -0.08745,-1.07107 0,-1.59574 0.09218,-0.55306 0.35461,-1.06383 0.531915,-1.59575 0.177305,-0.70922 0.428529,-1.40396 0.531915,-2.12766 0.07522,-0.52657 -0.08745,-1.07106 0,-1.59574 0.09218,-0.55306 0.439739,-1.04269 0.531915,-1.59575 0.0875,-0.52467 0,-1.06383 0,-1.59574 0.1773,-0.53192 0.42196,-1.04595 0.53191,-1.59575 0.0696,-0.34772 0,-0.70922 0,-1.06383 0,-1.06383 0,-2.12766 0,-3.19149 0,-0.3546 -0.0695,-0.7161 0,-1.06382 0.10996,-0.5498 0.43974,-1.04269 0.53192,-1.59575 0.14574,-0.87446 -0.21501,-1.79952 0,-2.65957 0.0962,-0.38463 0.45416,-0.67507 0.53191,-1.06383 0.10432,-0.52159 -0.10431,-1.07416 0,-1.59575 0.0778,-0.38877 0.43576,-0.6792 0.53192,-1.06383 0.086,-0.34402 0,-0.70922 0,-1.06383 0,-0.35461 0,-0.70922 0,-1.06383 0,-0.1773 -0.0561,-0.36371 0,-0.53191 1.50683,-3.01367 -0.19823,0.79293 0.53191,-2.12766 0.0962,-0.38463 0.43576,-0.6792 0.53192,-1.06383 0.086,-0.34402 -0.11214,-0.72742 0,-1.06383 0.0793,-0.23788 0.45262,-0.29404 0.53191,-0.53192 0.2421,-0.72627 -0.24209,-2.46521 0,-3.19149 0.0793,-0.23788 0.41978,-0.30764 0.53192,-0.53191 0.0793,-0.15859 0,-0.35461 0,-0.53192 0,-0.35461 -0.11214,-0.72741 0,-1.06383 0.0793,-0.23788 0.41978,-0.30764 0.53191,-0.53191 0.0793,-0.15859 -0.0793,-0.37333 0,-0.53192 0.11214,-0.22427 0.45263,-0.29403 0.53192,-0.53191 8e-4,-0.002 -5.1e-4,-1.59524 0,-1.59575 0.12537,-0.12537 0.45262,0.15859 0.53191,0 0.21277,-0.42553 -0.21276,-1.17021 0,-1.59574 0.11214,-0.22427 0.41978,-0.30764 0.53192,-0.53191 0.0793,-0.15859 -0.0793,-0.37333 0,-0.53192 0.11214,-0.22427 0.41978,-0.30764 0.53191,-0.53191 0.0793,-0.15859 -0.12537,-0.40655 0,-0.53192 0.12538,-0.12537 0.40654,0.12537 0.53192,0 0.12537,-0.12537 -0.0793,-0.37333 0,-0.53191 0.11214,-0.22428 0.41978,-0.30764 0.53191,-0.53192 0.0793,-0.15859 -0.0793,-0.37333 0,-0.53191 0.11214,-0.22428 0.41978,-0.30764 0.53192,-0.53192 0.0793,-0.15859 -0.0793,-0.37333 0,-0.53191 1.76414,-1.76414 -0.25075,0.50149 0.53191,-1.06383 0.11214,-0.22428 0.41978,-0.30764 0.53192,-0.53192 0.0793,-0.15858 -0.0793,-0.37333 0,-0.53191 0.31915,-0.6383 1.27659,-0.95745 1.59574,-1.59575 0.0793,-0.15858 0,-0.35461 0,-0.53191 0.17731,-0.17731 0.41978,-0.30764 0.53192,-0.53192 0.0793,-0.15858 -0.0793,-0.37333 0,-0.53191 1.10685,-2.21371 -0.0367,0.56863 1.06383,-0.53192 0.12537,-0.12537 -0.12538,-0.40654 0,-0.53191 0.12537,-0.12538 0.37333,0.0793 0.53191,0 0.22428,-0.11214 0.30764,-0.41978 0.53192,-0.53192 0.15858,-0.0793 0.36371,0.0561 0.53191,0 0.37612,-0.12537 0.68771,-0.40654 1.06383,-0.53191 0.16821,-0.0561 0.37333,0.0793 0.53192,0 0.22427,-0.11214 0.30764,-0.41978 0.53191,-0.53192 0.15859,-0.0793 0.37333,0.0793 0.53192,0 0.22427,-0.11213 0.30764,-0.41977 0.53191,-0.53191 0.15859,-0.0793 0.40654,0.12537 0.53192,0 0.12537,-0.12538 -0.12538,-0.40654 0,-0.53192 0.12537,-0.12537 0.40654,-0.12537 0.53191,0 0.10874,0.10875 -0.10545,1.38485 0,1.59575 0.11214,0.22427 0.41978,0.30764 0.53192,0.53191 0.21276,0.42553 -0.21277,1.17022 0,1.59575 0.11213,0.22427 0.41977,0.30764 0.53191,0.53191 0.10545,0.2109 -0.10874,1.487 0,1.59575 0.12537,0.12537 0.40654,-0.12538 0.53192,0 0.14554,0.14554 -0.14428,1.8391 0,2.12766 0.11213,0.22427 0.41977,0.30764 0.53191,0.53191 0.0793,0.15859 -0.0793,0.37333 0,0.53192 0.11214,0.22427 0.45262,0.29403 0.53192,0.53191 0.11213,0.33641 0,0.70922 0,1.06383 0,0.17731 -0.0793,0.37333 0,0.53192 0.11213,0.22427 0.35461,0.35461 0.53191,0.53191 0,0.35461 -0.11214,0.72742 0,1.06383 0.0793,0.23788 0.41978,0.30764 0.53192,0.53192 0.0793,0.15858 -0.0793,0.37332 0,0.53191 0.11213,0.22428 0.41977,0.30764 0.53191,0.53192 0.0793,0.15858 0,0.35461 0,0.53191 0.17731,0.17731 0.41978,0.30764 0.53192,0.53191 0.15858,0.31718 -0.15859,0.74666 0,1.06383 0.22427,0.44855 0.83955,0.61528 1.06383,1.06383 0.0793,0.15859 0,0.35461 0,0.53192 0,0.35461 -0.11214,0.72742 0,1.06383 0.0793,0.23788 0.41977,0.30764 0.53191,0.53191 0.0793,0.15859 -0.0793,0.37333 0,0.53192 0.11214,0.22427 0.41978,0.30764 0.53191,0.53191 0.0793,0.15859 -0.0793,0.37333 0,0.53192 0.11214,0.22427 0.41978,0.30764 0.53192,0.53191 0.0793,0.15859 -0.0793,0.37333 0,0.53192 0.11214,0.22427 0.41978,0.30764 0.53191,0.53191 0.10545,0.2109 -0.10874,1.48701 0,1.59575 0.12538,0.12537 0.40655,-0.12538 0.53192,0 0.25075,0.25075 -0.15859,0.74666 0,1.06383 1.76414,1.76414 -0.25075,-0.5015 0.53191,1.06383 0.11214,0.22427 0.41978,0.30764 0.53192,0.53191 0.15859,0.31718 -0.15859,0.74666 0,1.06383 0.11214,0.22428 0.41978,0.30764 0.53191,0.53192 0.0793,0.15858 -0.0793,0.37333 0,0.53191 0.11214,0.22428 0.41978,0.30764 0.53192,0.53192 0.15859,0.31717 -0.15859,0.74665 0,1.06383 0.11214,0.22427 0.41978,0.30764 0.53191,0.53191 0.0793,0.15859 0,0.35461 0,0.53192 0.17731,0.1773 0.41978,0.30764 0.53192,0.53191 0.15859,0.31717 -0.15859,0.74666 0,1.06383 0.11214,0.22428 0.41978,0.30764 0.53191,0.53192 0.0793,0.15858 -0.12537,0.40654 0,0.53191 0.12538,0.12537 0.40655,-0.12537 0.53192,0 0.12537,0.12537 -0.0793,0.37333 0,0.53192 0.11214,0.22427 0.41978,0.30764 0.53191,0.53191 0.0793,0.15859 -0.0793,0.37333 0,0.53192 0.31915,0.63829 1.2766,0.95744 1.59575,1.59574 0.0793,0.15859 -0.12538,0.40654 0,0.53192 0.12537,0.12537 0.37333,-0.0793 0.53191,0 0.22428,0.11213 0.30764,0.41977 0.53192,0.53191 0.15858,0.0793 0.40654,-0.12537 0.53191,0 0.12538,0.12537 -0.12537,0.40654 0,0.53192 0.12538,0.12537 0.40654,-0.12538 0.53192,0 0.2364,0.2364 -0.41371,1.00472 0.53191,0.53191 0.54151,-0.27075 0.84788,-1.16384 1.06383,-1.59574 0.35461,-0.70922 0.81309,-1.37542 1.06383,-2.12766 0.0561,-0.16821 -0.0561,-0.36371 0,-0.53192 0.12538,-0.37612 0.35461,-0.70922 0.53192,-1.06383 0.1773,-0.35461 0.31199,-0.73395 0.53191,-1.06383 0.32281,-0.48421 1.36002,-1.12429 1.59575,-1.59574 0.0793,-0.15859 -0.0793,-0.37333 0,-0.53192 0.11213,-0.22427 0.41977,-0.30764 0.53191,-0.53191 0.0793,-0.15859 -0.12537,-0.40654 0,-0.53192 0.12538,-0.12537 0.40654,0.12538 0.53192,0 0.12537,-0.12537 -0.0793,-0.37333 0,-0.53191 0.11213,-0.22428 0.41977,-0.30764 0.53191,-0.53192 0.0793,-0.15858 -0.0793,-0.37333 0,-0.53191 0.22428,-0.44855 0.83956,-0.61528 1.06383,-1.06383 0.0793,-0.15859 0,-0.35461 0,-0.53192 0.17731,-0.35461 0.312,-0.73395 0.53192,-1.06383 0.13909,-0.20863 0.45262,-0.29403 0.53191,-0.53191 0.11214,-0.33641 -0.11214,-0.72742 0,-1.06383 0.15859,-0.47576 0.83956,-0.61528 1.06383,-1.06383 0.0793,-0.15859 0,-0.35461 0,-0.53192 0.17731,-0.1773 0.41978,-0.30764 0.53192,-0.53191 0.0793,-0.15859 -0.0793,-0.37333 0,-0.53192 0.0692,-0.13848 0.69698,-0.89876 1.06383,-0.53191 0.28034,0.28034 0.31199,0.73395 0.53191,1.06383 0.5218,0.7827 1.60586,1.34496 2.12766,2.12766 0.65466,0.98199 0.94108,2.20949 1.59574,3.19149 0.13909,0.20863 0.35461,0.35461 0.53192,0.53191 0.1773,0.17731 0.41978,0.30764 0.53191,0.53192 0.15895,0.31789 -0.35015,1.06383 0.53192,1.06383 0.1773,0 0,-0.35461 0,-0.53192 0,-0.35461 -0.086,-0.71981 0,-1.06383 0.0962,-0.38463 0.43576,-0.6792 0.53191,-1.06383 0.086,-0.34402 -0.11213,-0.72741 0,-1.06383 0.0793,-0.23788 0.39283,-0.32328 0.53192,-0.53191 0.21992,-0.32988 0.40654,-0.68771 0.53191,-1.06383 0.0561,-0.16821 0,-0.35461 0,-0.53192 0.17731,-0.1773 0.41978,-0.30764 0.53192,-0.53191 0.0793,-0.15859 -0.12537,-0.40654 0,-0.53192 0.12537,-0.12537 0.40654,0.12538 0.53191,0 0.25075,-0.25074 -0.31717,-0.90524 0,-1.06383 1.12511,-0.56255 1.43565,0.54482 2.12766,1.06383 0.31718,0.23788 0.78349,0.25157 1.06383,0.53192 0.28035,0.28034 0.32794,0.72386 0.53192,1.06383 0.32891,0.54818 0.73492,1.04756 1.06383,1.59574 0.20398,0.33997 0.29403,0.74666 0.53191,1.06383 0.3009,0.4012 0.80582,0.6338 1.06383,1.06383 0.28847,0.48079 0.24345,1.11496 0.53192,1.59575 0.25801,0.43002 0.76293,0.66263 1.06383,1.06383 0.47576,0.63434 0.62399,1.4679 1.06383,2.12766 0.81145,1.21718 0.42104,-0.3326 1.06383,1.59574 0.0561,0.16821 -0.0793,0.37333 0,0.53192 0.11213,0.22427 0.41977,0.30764 0.53191,0.53191 0.0793,0.15859 -0.12537,0.40654 0,0.53192 0.12538,0.12537 0.45262,0.15858 0.53192,0 0.15858,-0.31718 -0.086,-0.71981 0,-1.06383 0.0962,-0.38463 0.40654,-0.68771 0.53191,-1.06383 0.23118,-0.69354 0.23501,-1.45962 0.53192,-2.12766 0.41989,-0.94475 1.16793,-1.71839 1.59574,-2.65958 0.46403,-1.02086 0.56234,-2.1885 1.06383,-3.19149 0.57179,-1.14358 1.41844,-2.12766 2.12766,-3.19149 0.70922,-1.06383 1.37564,-2.15746 2.12766,-3.19149 2.89861,-3.98559 1.51566,-1.48896 4.78723,-5.85106 0.76714,-1.02285 1.41844,-2.12766 2.12766,-3.19149 0.70922,-1.06383 1.55587,-2.04791 2.12766,-3.19149 1.81872,-3.63742 0.45045,-2.26501 1.59575,-5.31915 0.55683,-1.48489 1.57082,-2.77043 2.12766,-4.25532 0.25669,-0.6845 0.27522,-1.44316 0.53191,-2.12766 0.27842,-0.74244 0.846,-1.36523 1.06383,-2.12766 0.14613,-0.51144 -0.10431,-1.07415 0,-1.59574 0.15763,-0.78815 1.38753,-2.35863 1.59575,-3.19149 0.086,-0.34402 -0.086,-0.71981 0,-1.06383 0.19231,-0.76926 0.76934,-1.39144 1.06383,-2.12766 0.20823,-0.52058 0.32368,-1.07516 0.53191,-1.59574 0.73368,-1.83419 1.9259,-3.48496 2.65958,-5.31915 0.20823,-0.52059 0.32368,-1.07516 0.53191,-1.59575 0.29449,-0.73622 0.76934,-1.39144 1.06383,-2.12766 0.20823,-0.52058 0.32368,-1.07516 0.53192,-1.59574 0.14724,-0.36811 0.38467,-0.69572 0.53191,-1.06383 0.20823,-0.52059 0.24344,-1.11496 0.53192,-1.59575 0.25801,-0.43002 0.80581,-0.6338 1.06383,-1.06383 0.28847,-0.48078 0.32368,-1.07516 0.53191,-1.59574 0.14724,-0.36811 0.35461,-0.70922 0.53191,-1.06383 0.53192,-1.06383 1.06383,-2.12766 1.59575,-3.19149 0.1773,-0.35461 0.31199,-0.73395 0.53191,-1.06383 0.64885,-0.97326 0.67817,-0.0531 1.06383,-1.59574 0.086,-0.34403 -0.15858,-0.74666 0,-1.06383 0.53192,-1.06383 1.06383,-0.79788 1.59575,-1.59575 0.21992,-0.32988 0.35461,-0.70922 0.53191,-1.06383 0.15803,-0.31605 0.90581,-1.81161 1.06383,-2.12766 0.17731,-0.35461 0.29404,-0.74666 0.53192,-1.06383 0.45134,-0.60179 1.17847,-0.96984 1.59574,-1.59574 0.21992,-0.32988 0.312,-0.73395 0.53192,-1.06383 0.13909,-0.20864 0.39282,-0.32328 0.53191,-0.53192 0.17731,-0.35461 0.35461,-0.70922 0.53192,-1.06383 0,-0.1773 -0.0793,-0.37333 0,-0.53191 0.11214,-0.22428 0.39282,-0.32328 0.53191,-0.53192 0.21992,-0.32988 0.312,-0.73395 0.53192,-1.06383 0.13909,-0.20863 0.41978,-0.30764 0.53191,-0.53191 0.0793,-0.15859 -0.0793,-0.37333 0,-0.53192 0.22428,-0.44855 0.78565,-0.64656 1.06383,-1.06383 1.1719,-0.26786 0.28117,-1.09425 0.53192,-1.59574 0.31915,-0.6383 1.27659,-0.95745 1.59574,-1.59575 0.0793,-0.15858 -0.0793,-0.37332 0,-0.53191 0.11214,-0.22428 0.35461,-0.35461 0.53192,-0.53192 0.31284,-0.31284 2.0045,-1.88134 2.12766,-2.12765 0.36685,-0.73371 -0.64418,-0.47579 0.53191,-1.06383 0.15859,-0.0793 0.40654,0.12537 0.53192,0 0.12537,-0.12538 -0.12538,-0.40655 0,-0.53192 0.12537,-0.12537 0.35461,0 0.53191,0 1.868,0 0.42175,-0.25075 1.59575,0.53192 0.32988,0.21992 0.78348,0.25157 1.06383,0.53191 0.28034,0.28034 0.29403,0.74666 0.53191,1.06383 0.3009,0.4012 0.76293,0.66263 1.06383,1.06383 0.23788,0.31717 0.29404,0.74666 0.53192,1.06383 0.30089,0.40119 0.76293,0.66263 1.06382,1.06383 0.23788,0.31717 0.35461,0.70922 0.53192,1.06383 1.24743,2.49487 -0.25075,-0.62687 1.06383,2.65957 0.29449,0.73622 0.76934,1.39144 1.06383,2.12766 0.20823,0.52059 0.32368,1.07516 0.53191,1.59575 0.14725,0.36811 0.43576,0.6792 0.53192,1.06383 0.086,0.34402 -0.086,0.71981 0,1.06383 0.0962,0.38463 0.43576,0.6792 0.53191,1.06383 0.086,0.34402 -0.086,0.7198 0,1.06383 0.0962,0.38463 0.43576,0.6792 0.53192,1.06383 0.086,0.34402 -0.11214,0.72741 0,1.06383 0.0793,0.23788 0.41978,0.30764 0.53191,0.53191 0.0793,0.15859 0,0.35461 0,0.53192 0,0.35461 -0.11213,0.72741 0,1.06383 0.0793,0.23788 0.41978,0.30764 0.53192,0.53191 0.15692,0.31384 -0.12196,1.22988 0,1.59575 0.12537,0.37612 0.40654,0.6877 0.53191,1.06383 0.0561,0.1682 0,0.35461 0,0.53191 0.17731,0.35461 0.40654,0.68771 0.53192,1.06383 0.1682,0.50462 -0.12901,1.07971 0,1.59574 0.0962,0.38463 0.40654,0.68771 0.53191,1.06383 0.16821,0.50462 -0.129,1.07972 0,1.59575 0.19232,0.76926 0.81309,1.37542 1.06383,2.12766 0.0561,0.16821 -0.0561,0.36371 0,0.53191 0.12538,0.37612 0.43576,0.67921 0.53192,1.06383 0,2.42143 -0.25075,0.0304 0.53191,1.59575 0.0793,0.15858 -0.0793,0.37333 0,0.53191 0.11214,0.22428 0.41978,0.30764 0.53192,0.53192 0.0793,0.15858 -0.0793,0.37333 0,0.53191 0.0692,0.13849 0.69698,0.89877 1.06383,0.53192 0.28034,-0.28035 0.25157,-0.78349 0.53191,-1.06383 0.45204,-0.45204 1.09655,-0.66448 1.59575,-1.06383 0.3916,-0.31328 0.67223,-0.75055 1.06383,-1.06383 0.49919,-0.39936 1.09655,-0.66447 1.59574,-1.06383 0.7832,-0.62656 1.41844,-1.41844 2.12766,-2.12766 2.12766,-2.12766 4.25532,-4.25532 6.38298,-6.38298 1.24113,-1.24113 2.48227,-2.48227 3.7234,-3.7234 0.70922,-0.70922 1.52587,-1.32527 2.12766,-2.12766 0.47576,-0.63435 0.70922,-1.41844 1.06383,-2.12766 3.52828,-7.05656 -0.75224,1.75523 1.59575,-3.72341 0.31235,-0.72882 0.78541,-1.38521 1.06383,-2.12766 0.25669,-0.6845 0.30074,-1.43412 0.53191,-2.12766 0.25075,-0.75224 0.76935,-1.39144 1.06383,-2.12766 0.20824,-0.52058 0.24345,-1.11495 0.53192,-1.59574 0.25801,-0.43003 0.76293,-0.66264 1.06383,-1.06383 1.14387,-0.42841 0.1264,-1.51939 0.53191,-2.12766 0.21992,-0.32988 0.70922,-0.35461 1.06383,-0.53191 0.35461,-0.35461 0.80582,-0.63381 1.06383,-1.06383 0.0105,-0.0175 1.03626,-3.12256 1.06383,-3.19149 0.29449,-0.73622 0.76934,-1.39144 1.06383,-2.12766 0.20824,-0.52059 0.32368,-1.07516 0.53192,-1.59575 0.48635,-1.21588 0.84645,-1.41075 1.59574,-2.65957 0.40796,-0.67994 0.70922,-1.41844 1.06383,-2.12766 0.35461,-0.70922 0.76934,-1.39144 1.06383,-2.12766 0.20823,-0.52059 0.24344,-1.11496 0.53192,-1.59575 0.25801,-0.43002 0.76293,-0.66263 1.06383,-1.06383 0.23787,-0.31717 0.35461,-0.70922 0.53191,-1.06383 0.61144,-1.22288 0.9843,-2.50052 1.59574,-3.7234 0.17731,-0.35461 0.25158,-0.78349 0.53192,-1.06383 0.28034,-0.28034 0.78349,-0.25157 1.06383,-0.53192 0.28034,-0.28034 0.31199,-0.73395 0.53191,-1.06382 0.13909,-0.20864 0.39283,-0.32329 0.53192,-0.53192 0.21992,-0.32988 0.31199,-0.73395 0.53191,-1.06383 0.27818,-0.41727 0.78566,-0.64656 1.06383,-1.06383 0.21992,-0.32988 0.312,-0.73395 0.53192,-1.06383 0.88207,-1.3231 0.12222,-0.0611 1.06383,-0.53191 0.44855,-0.22428 0.64656,-0.78565 1.06383,-1.06383 0.32988,-0.21992 0.73395,-0.312 1.06383,-0.53192 0.20863,-0.13909 0.32328,-0.39282 0.53191,-0.53191 0.65976,-0.43984 1.4679,-0.62399 2.12766,-1.06383 0.20864,-0.13909 0.29404,-0.45263 0.53192,-0.53192 0.002,-8e-4 1.59523,5.1e-4 1.59574,0 0.12538,-0.12537 -0.12537,-0.40654 0,-0.53191 0.075,-0.075 1.48664,-0.0546 1.59575,0 0.22427,0.11213 0.30764,0.41977 0.53191,0.53191 0.15859,0.0793 0.37333,-0.0793 0.53192,0 0.22427,0.11214 0.35461,0.35461 0.53191,0.53192 0.70922,0.70922 1.5011,1.34445 2.12766,2.12766 0.39936,0.49919 0.66447,1.09655 1.06383,1.59574 0.31328,0.3916 0.76293,0.66264 1.06383,1.06383 0.23788,0.31717 0.32794,0.72386 0.53192,1.06383 0.3289,0.54818 0.70922,1.06383 1.06383,1.59575 0.35461,0.53191 0.70922,1.06382 1.06383,1.59574 0.35461,0.53191 0.77793,1.02395 1.06383,1.59574 0.25074,0.5015 0.32368,1.07516 0.53191,1.59575 0.14724,0.36811 0.35461,0.70922 0.53191,1.06383 0.17731,0.53191 0.32369,1.07516 0.53192,1.59574 0.0294,0.0735 1.05881,2.10257 1.06383,2.12766 0.10432,0.52159 -0.0874,1.07107 0,1.59575 -0.18474,1.08225 0.87657,1.7233 1.06383,2.65957 0.10432,0.52159 -0.10432,1.07416 0,1.59575 0.0778,0.38876 0.38467,0.69572 0.53191,1.06383 0.20824,0.52058 0.42196,1.04594 0.53192,1.59574 0.0695,0.34773 -0.11214,0.72742 0,1.06383 0.0793,0.23788 0.41978,0.30764 0.53191,0.53192 0.0793,0.15858 -0.0793,0.37332 0,0.53191 0.32539,0.65077 1.07746,0.67511 1.59575,1.06383 0.60179,0.45135 1.06383,1.06383 1.59574,1.59575 0.35461,0.35461 0.70922,0.70922 1.06383,1.06383 0.35461,0.35461 0.76294,0.66263 1.06383,1.06383 0.74951,0.99934 1.19746,3.06047 1.59575,4.25531 0.1773,0.53192 0.32368,1.07516 0.53191,1.59575 0.14725,0.36811 0.43576,0.6792 0.53192,1.06383 0.086,0.34402 -0.086,0.71981 0,1.06383 0.19231,0.76926 0.81308,1.37542 1.06383,2.12766 0.0561,0.1682 0,0.35461 0,0.53191 0.1773,0.17731 0.41977,0.30764 0.53191,0.53192 0.16312,0.32624 -0.42553,1.54255 0.53192,1.06383 0.22427,-0.11214 0.35461,-0.35461 0.53191,-0.53192 0.53192,-0.53191 1.06383,-1.06383 1.59575,-1.59574 0.88652,-0.88653 1.73188,-1.81622 2.65957,-2.65958 7.96999,-7.24544 -1.72354,2.25546 6.38298,-5.85106 0.88652,-0.88652 1.88499,-1.67374 2.65957,-2.65957 0.78377,-0.99752 6.60986,-10.05596 6.9149,-10.6383 0.90014,-2.25036 3.06763,-7.86298 4.25532,-10.10639 0.78263,-1.4783 2.07225,-2.68912 2.65957,-4.25531 0.50192,-1.33847 0.0799,-2.8992 0.53192,-4.25532 0.28034,-0.84104 1.12588,-1.37589 1.59574,-2.12766 0.42025,-0.67241 0.78541,-1.38522 1.06383,-2.12766 2.59323,-6.91529 -2.1294,3.59435 1.59575,-4.78724 0.64408,-1.44918 1.53868,-2.78288 2.12766,-4.25532 0.41646,-1.04117 0.70921,-2.12766 1.06382,-3.19149 0.35461,-1.06383 0.70922,-2.12766 1.06383,-3.19148 0.35461,-1.06383 0.87948,-2.08538 1.06383,-3.19149 0.1749,-1.04936 -0.23077,-2.153 0,-3.19149 0.13868,-0.62406 0.77794,-1.02396 1.06383,-1.59575 0.0793,-0.15858 0,-0.35461 0,-0.53191 0.17731,-0.35461 0.312,-0.73395 0.53192,-1.06383 0.13909,-0.20864 0.45262,-0.29404 0.53191,-0.53192 0.11214,-0.33641 -0.11213,-0.72742 0,-1.06383 0.0793,-0.23788 0.41978,-0.30764 0.53192,-0.53191 0.0793,-0.15859 -0.0561,-0.36371 0,-0.53192 0.12537,-0.37612 0.35461,-0.70922 0.53191,-1.06383 0.35461,-0.70922 0.70922,-1.41844 1.06383,-2.12766 0.17731,-0.35461 0.43576,-0.6792 0.53192,-1.06383 0.086,-0.34402 -0.086,-0.7198 0,-1.06383 0.19231,-0.76925 0.81308,-1.37541 1.06383,-2.12766 0.0561,-0.1682 0,-0.35461 0,-0.53191 0.1773,-0.35461 0.40654,-0.68771 0.53191,-1.06383 0.0561,-0.16821 0,-0.35461 0,-0.53192 0.17731,-0.35461 0.40654,-0.6877 0.53192,-1.06383 0.0561,-0.1682 -0.0793,-0.37332 0,-0.53191 0.11214,-0.22428 0.45262,-0.29404 0.53191,-0.53192 0.11214,-0.33641 -0.11213,-0.72741 0,-1.06382 0.0793,-0.23788 0.41978,-0.30764 0.53192,-0.53192 0.15858,-0.31717 -0.11214,-0.72742 0,-1.06383 0.12537,-0.37612 0.40654,-0.68771 0.53191,-1.06383 0.11214,-0.33641 -0.11213,-0.72742 0,-1.06383 0.12538,-0.37612 0.40654,-0.68771 0.53192,-1.06383 0.11566,-0.34699 -0.38852,-1.52405 0.53191,-1.06383 0.47696,0.23848 1.55144,2.05382 1.59575,2.12766 0.20398,0.33997 0.35461,0.70922 0.53191,1.06383 0.17731,0.35461 0.40654,0.68771 0.53192,1.06383 0.23117,0.69353 0.33108,1.42474 0.53191,2.12766 0.46166,1.61582 1.13408,3.17142 1.59575,4.78723 0.20083,0.70292 0.30073,1.43413 0.53191,2.12766 0.12538,0.37612 0.43576,0.6792 0.53192,1.06383 0.12055,0.48221 0,2.04167 0,2.65958 0,0.1773 -0.12538,0.40654 0,0.53191 0.28034,0.28035 0.73395,0.312 1.06383,0.53192 0.20863,0.13909 0.30764,0.41978 0.53191,0.53191 0.15859,0.0793 0.40654,-0.12537 0.53192,0 0.28034,0.28035 0.35461,0.70922 0.53191,1.06383 0.17731,0.35461 0.38467,0.69572 0.53192,1.06383 0.41646,1.04117 0.62209,2.16079 1.06383,3.19149 0.31235,0.72882 0.81308,1.37542 1.06383,2.12766 0.28589,0.85769 0.29403,1.78735 0.53191,2.65958 0.64682,2.37166 1.41061,3.44434 1.59574,5.85106 0.10879,1.41426 -0.15664,2.84555 0,4.25532 0.19968,1.7971 0.85257,3.52337 1.06383,5.31915 0.14502,1.23263 -0.0825,2.48502 0,3.7234 0.70786,10.61776 0.53192,-2.09085 0.53192,8.51064 0,3.7234 0,7.44681 0,11.17021 0,1.06383 0,2.12766 0,3.19149 0,0.70922 -0.17201,1.43962 0,2.12766 0.19231,0.76926 0.87152,1.3584 1.06383,2.12766 0.17201,0.68805 0,1.41844 0,2.12766 0,1.24114 0,2.48227 0,3.72341 0,0.35461 -0.0695,0.7161 0,1.06382 0.10996,0.5498 0.42195,1.04595 0.53191,1.59575 0.0695,0.34772 -0.0695,0.71611 0,1.06383 0.10996,0.5498 0.43974,1.04269 0.53192,1.59574 0.0874,0.52468 -0.0752,1.06918 0,1.59575 -0.0504,1.34685 0.85162,2.45017 1.06383,3.7234 0.0875,0.52468 -0.0874,1.07107 0,1.59575 0.36895,2.2137 0.48505,0.92324 1.06383,2.65957 0.11214,0.33641 -0.15859,0.74666 0,1.06383 0.11214,0.22428 0.41978,0.30764 0.53191,0.53192 0.23788,0.47576 -0.23788,1.11998 0,1.59574 0.0793,0.15859 0.40654,-0.12537 0.53192,0 0.16327,0.16327 -0.0987,1.73284 0,2.12766 0.86816,3.47266 0.28562,-2.00967 1.06383,2.65958 0.0874,0.52467 -0.0875,1.07106 0,1.59574 0.0922,0.55306 0.37788,1.05663 0.53191,1.59574 0.20084,0.70292 0.27523,1.44316 0.53192,2.12766 2.78048,7.41461 -0.78359,-3.94652 2.12766,4.78724 0.40818,1.22456 0.70922,2.48227 1.06383,3.7234 0.35461,1.24114 0.75076,2.47115 1.06383,3.72341 0.39646,1.58586 0.57625,3.22697 1.06383,4.78723 0.40276,1.28885 1.22478,2.42505 1.59574,3.72341 0.34443,1.20549 0.18749,2.5179 0.53192,3.7234 0.37096,1.29836 1.24782,2.41868 1.59574,3.7234 0.36832,1.38122 0.2324,2.85758 0.53192,4.25532 0.002,0.0105 2.11644,6.34558 2.12766,6.38298 0.21006,0.70022 0.27522,1.44316 0.53191,2.12766 0.35461,0.70922 0.70922,1.41844 1.06383,2.12766 0,0.17731 -0.0561,0.36371 0,0.53192 0.61121,1.83362 0.53192,0.39402 0.53192,1.59574 0,1.24114 0,2.48227 0,3.7234 0,0.70922 -0.088,1.42392 0,2.12766 0.0907,0.72541 0.44123,1.40226 0.53191,2.12766 0.088,0.70375 0,1.41844 0,2.12766 0,0.88653 0,1.77305 0,2.65958 0,1.24113 -0.18872,2.4967 0,3.7234 0.17051,1.10834 0.82057,2.09682 1.06383,3.19149 0.11539,0.51925 0,1.06383 0,1.59575 0,0.53191 0,1.06383 0,1.59574 0,0.53192 -0.0874,1.07107 0,1.59575 0.64405,3.86431 0.53191,-0.18695 0.53191,2.65957 0,4.07801 0,8.15603 0,12.23404 0,1.06383 0,2.12766 0,3.19149 0,0.17731 -0.1773,0.53192 0,0.53192 0.25075,0 0.43879,-0.29911 0.53192,-0.53192 1.06511,-2.66277 0.011,-2.16072 1.06383,-5.31915 0.20216,-0.60647 0.77793,-1.02395 1.06383,-1.59574 0.25075,-0.5015 0.35461,-1.06383 0.53191,-1.59575 0.35461,-1.06383 0.6221,-2.16078 1.06383,-3.19149 0.31236,-0.72882 0.78542,-1.38521 1.06383,-2.12766 1.65377,-4.41004 -0.19048,-0.1114 0.53192,-3.7234 0.15551,-0.77753 0.87151,-1.3584 1.06383,-2.12766 0.086,-0.34402 -0.11214,-0.72742 0,-1.06383 0.0793,-0.23788 0.45262,-0.29403 0.53191,-0.53191 0.11214,-0.33642 -0.11213,-0.72742 0,-1.06383 0.0793,-0.23788 0.45263,-0.29404 0.53192,-0.53192 0.11214,-0.33641 -0.11214,-0.72742 0,-1.06383 0.0793,-0.23788 0.45262,-0.29403 0.53191,-0.53191 0.11214,-0.33642 -0.0695,-0.71611 0,-1.06383 -0.12206,-1.06816 0.83226,-1.73327 1.06383,-2.65958 0.086,-0.34402 0,-0.70922 0,-1.06383 0,-0.1773 -0.0793,-0.37333 0,-0.53191 0.11214,-0.22428 0.41978,-0.30764 0.53192,-0.53192 0.0793,-0.15858 -0.0793,-0.37333 0,-0.53191 0.11214,-0.22428 0.41978,-0.30764 0.53191,-0.53192 0.15859,-0.31717 -0.15858,-0.74665 0,-1.06383 0.11214,-0.22427 0.39283,-0.32328 0.53192,-0.53191 0.21992,-0.32988 0.31199,-0.73395 0.53191,-1.06383 0.13909,-0.20864 0.45262,-0.29404 0.53192,-0.53192 0.11213,-0.33641 -0.15859,-0.74665 0,-1.06383 0.22427,-0.44855 0.83955,-0.61528 1.06383,-1.06383 0.15858,-0.31717 0,-0.70922 0,-1.06383 0.35461,-0.1773 0.78348,-0.25157 1.06383,-0.53191 0.25074,-0.25075 -0.25075,-0.81308 0,-1.06383 0.12537,-0.12537 0.35461,0 0.53191,0 0.17731,0 0.35461,0 0.53192,0 0.35461,0 0.74665,-0.15859 1.06383,0 0,0.55028 -0.12538,0.73519 0.53191,1.06383 0.15859,0.0793 0.37333,-0.0793 0.53192,0 0.14123,0.0706 1.52513,1.45452 1.59574,1.59574 0.0793,0.15859 -0.0793,0.37333 0,0.53192 0.14204,0.28409 1.31571,1.31571 1.59575,1.59574 0.56737,0.56738 0.49645,0.85107 1.06383,0 0.59051,-0.88576 0.97949,-2.36981 1.59574,-3.19149 0.3009,-0.40119 0.76293,-0.66263 1.06383,-1.06383 0.47576,-0.63434 0.62399,-1.4679 1.06383,-2.12765 0.27818,-0.41727 0.78565,-0.64657 1.06383,-1.06383 0.21992,-0.32988 0.31199,-0.73395 0.53191,-1.06383 0.27818,-0.41727 0.78566,-0.64657 1.06383,-1.06383 0.21992,-0.32988 0.312,-0.73395 0.53192,-1.06383 0.13909,-0.20864 0.41978,-0.30764 0.53191,-0.53192 0.0793,-0.15859 -0.0793,-0.37333 0,-0.53191 0.11214,-0.22428 0.35461,-0.35461 0.53192,-0.53192 0.1773,-0.1773 0.30764,-0.41978 0.53191,-0.53191 0.15859,-0.0793 0.40655,0.12537 0.53192,0 0.12537,-0.12538 -0.12537,-0.40654 0,-0.53192 0.25075,-0.25075 0.74666,0.15859 1.06383,0 0.22427,-0.11214 0.30764,-0.41978 0.53191,-0.53191 0.32299,-0.1615 2.8685,0.16149 3.19149,0 0.22428,-0.11214 0.30764,-0.41978 0.53192,-0.53192 0.15858,-0.0793 0.35461,0 0.53191,0 0.17731,0 0.35461,0 0.53192,0 0.27815,0 1.98779,-0.0699 2.12766,0 0.22427,0.11214 0.30764,0.41978 0.53191,0.53192 0.31717,0.15858 0.74666,-0.15859 1.06383,0 0.22428,0.11213 0.30764,0.41977 0.53192,0.53191 0.15858,0.0793 0.35461,0 0.53191,0 0.17731,0 0.35461,0 0.53192,0 1.06383,0 2.12766,0 3.19149,0 0.1773,0 0.40654,0.12538 0.53191,0 0.12537,-0.12537 -0.12537,-0.40654 0,-0.53191 0.12537,-0.12538 0.35461,0 0.53192,0 0.51189,0 1.08886,-0.0676 1.59574,0 0.35846,0.0478 0.70922,0.14184 1.06383,0.21276"
       id="path3378"
       inkscape:connector-curvature="0" />
    <path
       sodipodi:type="arc"
       style="fill:none;stroke:#000000;stroke-width:6;stroke-miterlimit:4;stroke-opacity:1;stroke-dasharray:none;stroke-dashoffset:0"
       id="path4148"
       sodipodi:cx="85"
       sodipodi:cy="387.36218"
       sodipodi:rx="5"
       sodipodi:ry="5"
       d="m 90,387.36218 a 5,5 0 1 1 -10,0 5,5 0 1 1 10,0 z"
       transform="matrix(0.35872227,0,0,0.41191376,49.455416,232.5896)" />
    <path
       sodipodi:type="arc"
       style="fill:none;stroke:#000000;stroke-width:6;stroke-miterlimit:4;stroke-opacity:1;stroke-dasharray:none;stroke-dashoffset:0"
       id="path4148-7"
       sodipodi:cx="85"
       sodipodi:cy="387.36218"
       sodipodi:rx="5"
       sodipodi:ry="5"
       d="m 90,387.36218 a 5,5 0 1 1 -10,0 5,5 0 1 1 10,0 z"
       transform="matrix(0.35872227,0,0,0.41191376,69.561799,184.93003)" />
    <path
       sodipodi:type="arc"
       style="fill:none;stroke:#000000;stroke-width:6;stroke-miterlimit:4;stroke-opacity:1;stroke-dasharray:none;stroke-dashoffset:0"
       id="path4148-4"
       sodipodi:cx="85"
       sodipodi:cy="387.36218"
       sodipodi:rx="5"
       sodipodi:ry="5"
       d="m 90,387.36218 a 5,5 0 1 1 -10,0 5,5 0 1 1 10,0 z"
       transform="matrix(0.35872227,0,0,0.41191376,90.604356,134.39811)" />
    <path
       sodipodi:type="arc"
       style="fill:none;stroke:#000000;stroke-width:6;stroke-miterlimit:4;stroke-opacity:1;stroke-dasharray:none;stroke-dashoffset:0"
       id="path4148-44"
       sodipodi:cx="85"
       sodipodi:cy="387.36218"
       sodipodi:rx="5"
       sodipodi:ry="5"
       d="m 90,387.36218 a 5,5 0 1 1 -10,0 5,5 0 1 1 10,0 z"
       transform="matrix(0.35872227,0,0,0.41191376,109.34904,137.5896)" />
    <path
       sodipodi:type="arc"
       style="fill:none;stroke:#000000;stroke-width:6;stroke-miterlimit:4;stroke-opacity:1;stroke-dasharray:none;stroke-dashoffset:0"
       id="path4148-73"
       sodipodi:cx="85"
       sodipodi:cy="387.36218"
       sodipodi:rx="5"
       sodipodi:ry="5"
       d="m 90,387.36218 a 5,5 0 1 1 -10,0 5,5 0 1 1 10,0 z"
       transform="matrix(0.35872227,0,0,0.41191376,129.45542,144.5896)" />
    <path
       sodipodi:type="arc"
       style="fill:none;stroke:#000000;stroke-width:6;stroke-miterlimit:4;stroke-opacity:1;stroke-dasharray:none;stroke-dashoffset:0"
       id="path4148-5"
       sodipodi:cx="85"
       sodipodi:cy="387.36218"
       sodipodi:rx="5"
       sodipodi:ry="5"
       d="m 90,387.36218 a 5,5 0 1 1 -10,0 5,5 0 1 1 10,0 z"
       transform="matrix(0.35872227,0,0,0.41191376,149.45542,138.5896)" />
    <path
       sodipodi:type="arc"
       style="fill:none;stroke:#000000;stroke-width:6;stroke-miterlimit:4;stroke-opacity:1;stroke-dasharray:none;stroke-dashoffset:0"
       id="path4148-1"
       sodipodi:cx="85"
       sodipodi:cy="387.36218"
       sodipodi:rx="5"
       sodipodi:ry="5"
       d="m 90,387.36218 a 5,5 0 1 1 -10,0 5,5 0 1 1 10,0 z"
       transform="matrix(0.35872227,0,0,0.41191376,169.45542,88.5896)" />
    <path
       sodipodi:type="arc"
       style="fill:none;stroke:#000000;stroke-width:6;stroke-miterlimit:4;stroke-opacity:1;stroke-dasharray:none;stroke-dashoffset:0"
       id="path4148-43"
       sodipodi:cx="85"
       sodipodi:cy="387.36218"
       sodipodi:rx="5"
       sodipodi:ry="5"
       d="m 90,387.36218 a 5,5 0 1 1 -10,0 5,5 0 1 1 10,0 z"
       transform="matrix(0.35872227,0,0,0.41191376,189.45542,46.5896)" />
    <path
       sodipodi:type="arc"
       style="fill:none;stroke:#000000;stroke-width:6;stroke-miterlimit:4;stroke-opacity:1;stroke-dasharray:none;stroke-dashoffset:0"
       id="path4148-13"
       sodipodi:cx="85"
       sodipodi:cy="387.36218"
       sodipodi:rx="5"
       sodipodi:ry="5"
       d="m 90,387.36218 a 5,5 0 1 1 -10,0 5,5 0 1 1 10,0 z"
       transform="matrix(0.35872227,0,0,0.41191376,209.45542,80.5896)" />
    <path
       sodipodi:type="arc"
       style="fill:none;stroke:#000000;stroke-width:6;stroke-miterlimit:4;stroke-opacity:1;stroke-dasharray:none;stroke-dashoffset:0"
       id="path4148-9"
       sodipodi:cx="85"
       sodipodi:cy="387.36218"
       sodipodi:rx="5"
       sodipodi:ry="5"
       d="m 90,387.36218 a 5,5 0 1 1 -10,0 5,5 0 1 1 10,0 z"
       transform="matrix(0.35872227,0,0,0.41191376,229.45542,56.5896)" />
    <path
       sodipodi:type="arc"
       style="fill:none;stroke:#000000;stroke-width:6;stroke-miterlimit:4;stroke-opacity:1;stroke-dasharray:none;stroke-dashoffset:0"
       id="path4148-8"
       sodipodi:cx="85"
       sodipodi:cy="387.36218"
       sodipodi:rx="5"
       sodipodi:ry="5"
       d="m 90,387.36218 a 5,5 0 1 1 -10,0 5,5 0 1 1 10,0 z"
       transform="matrix(0.35872227,0,0,0.41191376,249.45542,18.5896)" />
    <path
       sodipodi:type="arc"
       style="fill:none;stroke:#000000;stroke-width:6;stroke-miterlimit:4;stroke-opacity:1;stroke-dasharray:none;stroke-dashoffset:0"
       id="path4148-6"
       sodipodi:cx="85"
       sodipodi:cy="387.36218"
       sodipodi:rx="5"
       sodipodi:ry="5"
       d="m 90,387.36218 a 5,5 0 1 1 -10,0 5,5 0 1 1 10,0 z"
       transform="matrix(0.35872227,0,0,0.41191376,269.45542,26.5896)" />
    <path
       style="fill:none;stroke:#00ff00;stroke-width:1.7;stroke-linecap:butt;stroke-linejoin:miter;stroke-opacity:1;stroke-miterlimit:4;stroke-dasharray:3.4,1.7;stroke-dashoffset:0"
       d="m 80,232.36218 240,0"
       id="path4287"
       inkscape:connector-curvature="0" />
    <path
       sodipodi:type="arc"
       style="fill:none;stroke:#000000;stroke-width:6;stroke-miterlimit:4;stroke-opacity:1;stroke-dasharray:none;stroke-dashoffset:0"
       id="path4148-3"
       sodipodi:cx="85"
       sodipodi:cy="387.36218"
       sodipodi:rx="5"
       sodipodi:ry="5"
       d="m 90,387.36218 a 5,5 0 1 1 -10,0 5,5 0 1 1 10,0 z"
       transform="matrix(0.35872227,0,0,0.41191376,289.45542,72.5896)" />
    <path
       sodipodi:type="arc"
       style="fill:none;stroke:#000000;stroke-width:6;stroke-miterlimit:4;stroke-opacity:1;stroke-dasharray:none;stroke-dashoffset:0"
       id="path4148-66"
       sodipodi:cx="85"
       sodipodi:cy="387.36218"
       sodipodi:rx="5"
       sodipodi:ry="5"
       d="m 90,387.36218 a 5,5 0 1 1 -10,0 5,5 0 1 1 10,0 z"
       transform="matrix(0.35872227,0,0,0.41191376,309.45542,42.5896)" />
    <path
       sodipodi:type="arc"
       style="fill:none;stroke:#000000;stroke-width:6;stroke-miterlimit:4;stroke-opacity:1;stroke-dasharray:none;stroke-dashoffset:0"
       id="path4148-14"
       sodipodi:cx="85"
       sodipodi:cy="387.36218"
       sodipodi:rx="5"
       sodipodi:ry="5"
       d="m 90,387.36218 a 5,5 0 1 1 -10,0 5,5 0 1 1 10,0 z"
       transform="matrix(0.35872227,0,0,0.41191376,329.45542,-9.4104)" />
    <path
       sodipodi:type="arc"
       style="fill:none;stroke:#000000;stroke-width:6;stroke-miterlimit:4;stroke-opacity:1;stroke-dasharray:none;stroke-dashoffset:0"
       id="path4148-30"
       sodipodi:cx="85"
       sodipodi:cy="387.36218"
       sodipodi:rx="5"
       sodipodi:ry="5"
       d="m 90,387.36218 a 5,5 0 1 1 -10,0 5,5 0 1 1 10,0 z"
       transform="matrix(0.35872227,0,0,0.41191376,349.45542,52.5896)" />
    <path
       sodipodi:type="arc"
       style="fill:none;stroke:#000000;stroke-width:6;stroke-miterlimit:4;stroke-opacity:1;stroke-dasharray:none;stroke-dashoffset:0"
       id="path4148-84"
       sodipodi:cx="85"
       sodipodi:cy="387.36218"
       sodipodi:rx="5"
       sodipodi:ry="5"
       d="m 90,387.36218 a 5,5 0 1 1 -10,0 5,5 0 1 1 10,0 z"
       transform="matrix(0.35872227,0,0,0.41191376,369.45542,156.5896)" />
    <path
       sodipodi:type="arc"
       style="fill:none;stroke:#000000;stroke-width:6;stroke-miterlimit:4;stroke-opacity:1;stroke-dasharray:none;stroke-dashoffset:0"
       id="path4148-0"
       sodipodi:cx="85"
       sodipodi:cy="387.36218"
       sodipodi:rx="5"
       sodipodi:ry="5"
       d="m 90,387.36218 a 5,5 0 1 1 -10,0 5,5 0 1 1 10,0 z"
       transform="matrix(0.35872227,0,0,0.41191376,389.45542,128.5896)" />
    <text
       xml:space="preserve"
       style="font-size:12px;font-style:normal;font-variant:normal;font-weight:normal;font-stretch:normal;text-align:start;line-height:125%;letter-spacing:0px;word-spacing:0px;writing-mode:lr-tb;text-anchor:start;fill:#000000;fill-opacity:1;stroke:none;font-family:Arial;-inkscape-font-specification:Arial"
       x="66.765961"
       y="233.87282"
       id="text4289"
       sodipodi:linespacing="125%"><tspan
         sodipodi:role="line"
         id="tspan4291"
         x="66.765961"
         y="233.87282">x<tspan
   style="font-size:65.00091553%;baseline-shift:sub"
   id="tspan4293">j</tspan></tspan></text>
  </g>
</svg>
